o tris.obj
v 63.937500 -1.750000 63.937504
v -63.937500 -1.750000 -63.937504
v -63.937500 -1.750000 63.937504
v 63.937500 -1.750000 -63.937504
v 63.937500 1.750000 63.937504
v 63.937500 1.750000 -63.937504
v -63.937500 1.750000 63.937504
v -63.937500 1.750000 -63.937504
vn 0.000000 -1.000000 0.000000
vn 0.000000 -1.000000 0.000000
vn 0.000000 -1.000000 0.000000
vn 0.000000 -1.000000 0.000000
vn 1.000000 -0.000000 0.000000
vn 1.000000 -0.000000 0.000000
vn 1.000000 -0.000000 0.000000
vn 1.000000 -0.000000 0.000000
vn 0.000000 1.000000 0.000000
vn 0.000000 1.000000 0.000000
vn 0.000000 1.000000 0.000000
vn 0.000000 1.000000 0.000000
vn -1.000000 -0.000000 -0.000000
vn -1.000000 -0.000000 -0.000000
vn -1.000000 -0.000000 -0.000000
vn -1.000000 -0.000000 -0.000000
vn -0.000000 0.000000 1.000000
vn -0.000000 0.000000 1.000000
vn -0.000000 0.000000 1.000000
vn -0.000000 0.000000 1.000000
vn 0.000000 0.000000 -1.000000
vn 0.000000 0.000000 -1.000000
vn 0.000000 0.000000 -1.000000
vn 0.000000 0.000000 -1.000000
vt 0.990458 0.007296
vt 0.005050 0.007296
vt 0.005050 0.992704
vt 0.990458 0.992704
vt 0.499332 0.007109
vt 0.526340 0.007109
vt 0.526340 0.992891
vt 0.499332 0.992891
vt 0.005050 0.992704
vt 0.990458 0.992704
vt 0.990458 0.007296
vt 0.005050 0.007296
vt 0.526278 0.992891
vt 0.499270 0.992891
vt 0.499270 0.007109
vt 0.526278 0.007109
vt 0.498900 0.992466
vt 0.498900 0.007534
vt 0.525884 0.007534
vt 0.525884 0.992466
vt 0.526215 0.007534
vt 0.526215 0.992466
vt 0.499231 0.992466
vt 0.499231 0.007534
g platform
f 1/1/1 3/2/2 2/3/3 4/4/4 
f 5/5/5 1/6/6 4/7/7 6/8/8 
f 7/9/9 5/10/10 6/11/11 8/12/12 
f 3/13/13 7/14/14 8/15/15 2/16/16 
f 5/17/17 7/18/18 3/19/19 1/20/20 
f 4/21/21 2/22/22 8/23/23 6/24/24 
